<mxfile host="app.diagrams.net" modified="2023-11-22T13:10:33.943Z" agent="Mozilla/5.0 (Windows NT 10.0; Win64; x64) AppleWebKit/537.36 (KHTML, like Gecko) Chrome/119.0.0.0 Safari/537.36" etag="mTgAz286Mfq8wxcSKjEZ" version="22.1.3" type="github">
  <diagram name="Page-1" id="CadC4ivdR4K4E-BQkL5t">
    <mxGraphModel dx="2074" dy="1120" grid="1" gridSize="10" guides="1" tooltips="1" connect="1" arrows="1" fold="1" page="1" pageScale="1" pageWidth="827" pageHeight="1169" math="0" shadow="0">
      <root>
        <mxCell id="0" />
        <mxCell id="1" parent="0" />
        <mxCell id="mWVV7jf4pfqnD_XnGMs0-1" value="Solve KS equations" style="rounded=0;whiteSpace=wrap;html=1;fillColor=#dae8fc;strokeColor=#6c8ebf;" vertex="1" parent="1">
          <mxGeometry x="480" y="280" width="160" height="40" as="geometry" />
        </mxCell>
        <mxCell id="mWVV7jf4pfqnD_XnGMs0-2" value="" style="endArrow=classic;html=1;rounded=0;fillColor=#dae8fc;strokeColor=#6c8ebf;entryX=0.5;entryY=0;entryDx=0;entryDy=0;exitX=0.5;exitY=1;exitDx=0;exitDy=0;" edge="1" parent="1" source="mWVV7jf4pfqnD_XnGMs0-10" target="mWVV7jf4pfqnD_XnGMs0-21">
          <mxGeometry width="50" height="50" relative="1" as="geometry">
            <mxPoint x="560" y="480" as="sourcePoint" />
            <mxPoint x="560" y="520" as="targetPoint" />
          </mxGeometry>
        </mxCell>
        <mxCell id="mWVV7jf4pfqnD_XnGMs0-3" value="" style="endArrow=classic;html=1;rounded=0;fillColor=#dae8fc;strokeColor=#6c8ebf;exitX=0.5;exitY=1;exitDx=0;exitDy=0;" edge="1" parent="1" source="mWVV7jf4pfqnD_XnGMs0-24" target="mWVV7jf4pfqnD_XnGMs0-5">
          <mxGeometry width="50" height="50" relative="1" as="geometry">
            <mxPoint x="560" y="660" as="sourcePoint" />
            <mxPoint x="440" y="610" as="targetPoint" />
          </mxGeometry>
        </mxCell>
        <mxCell id="mWVV7jf4pfqnD_XnGMs0-4" value="" style="edgeStyle=orthogonalEdgeStyle;rounded=0;orthogonalLoop=1;jettySize=auto;html=1;fillColor=#dae8fc;strokeColor=#6c8ebf;" edge="1" parent="1" source="mWVV7jf4pfqnD_XnGMs0-5" target="mWVV7jf4pfqnD_XnGMs0-27">
          <mxGeometry relative="1" as="geometry" />
        </mxCell>
        <mxCell id="mWVV7jf4pfqnD_XnGMs0-5" value="Is self-consistent" style="rhombus;whiteSpace=wrap;html=1;verticalAlign=middle;fillColor=#dae8fc;strokeColor=#6c8ebf;" vertex="1" parent="1">
          <mxGeometry x="480" y="760" width="160" height="80" as="geometry" />
        </mxCell>
        <mxCell id="mWVV7jf4pfqnD_XnGMs0-6" value="" style="endArrow=classic;html=1;rounded=0;exitX=0;exitY=0.5;exitDx=0;exitDy=0;fillColor=#dae8fc;strokeColor=#6c8ebf;" edge="1" parent="1" source="mWVV7jf4pfqnD_XnGMs0-5">
          <mxGeometry width="50" height="50" relative="1" as="geometry">
            <mxPoint x="390" y="660" as="sourcePoint" />
            <mxPoint x="560" y="240" as="targetPoint" />
            <Array as="points">
              <mxPoint x="400" y="800" />
              <mxPoint x="400" y="240" />
            </Array>
          </mxGeometry>
        </mxCell>
        <mxCell id="mWVV7jf4pfqnD_XnGMs0-7" style="edgeStyle=orthogonalEdgeStyle;rounded=0;orthogonalLoop=1;jettySize=auto;html=1;exitX=0.5;exitY=1;exitDx=0;exitDy=0;" edge="1" parent="1">
          <mxGeometry relative="1" as="geometry">
            <mxPoint x="560" y="880" as="sourcePoint" />
            <mxPoint x="560" y="880" as="targetPoint" />
          </mxGeometry>
        </mxCell>
        <mxCell id="mWVV7jf4pfqnD_XnGMs0-8" value="Yes" style="text;html=1;strokeColor=none;fillColor=none;align=center;verticalAlign=middle;whiteSpace=wrap;rounded=0;" vertex="1" parent="1">
          <mxGeometry x="560" y="840" width="60" height="30" as="geometry" />
        </mxCell>
        <mxCell id="mWVV7jf4pfqnD_XnGMs0-9" value="No" style="text;html=1;strokeColor=none;fillColor=none;align=center;verticalAlign=middle;whiteSpace=wrap;rounded=0;" vertex="1" parent="1">
          <mxGeometry x="400" y="770" width="60" height="30" as="geometry" />
        </mxCell>
        <mxCell id="mWVV7jf4pfqnD_XnGMs0-10" value="Occupation: Fermi level&amp;nbsp;" style="rounded=0;whiteSpace=wrap;html=1;fillColor=#dae8fc;strokeColor=#6c8ebf;" vertex="1" parent="1">
          <mxGeometry x="480" y="360" width="160" height="40" as="geometry" />
        </mxCell>
        <mxCell id="mWVV7jf4pfqnD_XnGMs0-11" value="" style="endArrow=classic;html=1;rounded=0;exitX=0.5;exitY=1;exitDx=0;exitDy=0;fillColor=#dae8fc;strokeColor=#6c8ebf;" edge="1" parent="1" source="mWVV7jf4pfqnD_XnGMs0-1" target="mWVV7jf4pfqnD_XnGMs0-10">
          <mxGeometry width="50" height="50" relative="1" as="geometry">
            <mxPoint x="570" y="270" as="sourcePoint" />
            <mxPoint x="560" y="340" as="targetPoint" />
          </mxGeometry>
        </mxCell>
        <mxCell id="mWVV7jf4pfqnD_XnGMs0-12" value="densityupdate:" style="text;html=1;strokeColor=none;fillColor=none;align=center;verticalAlign=middle;whiteSpace=wrap;rounded=0;" vertex="1" parent="1">
          <mxGeometry x="677.5" y="440" width="90" height="40" as="geometry" />
        </mxCell>
        <mxCell id="mWVV7jf4pfqnD_XnGMs0-13" value="hartreepotential" style="text;whiteSpace=wrap;verticalAlign=middle;align=center;" vertex="1" parent="1">
          <mxGeometry x="677.5" y="520" width="90" height="40" as="geometry" />
        </mxCell>
        <mxCell id="mWVV7jf4pfqnD_XnGMs0-14" value="occupation" style="text;whiteSpace=wrap;html=1;verticalAlign=middle;align=center;" vertex="1" parent="1">
          <mxGeometry x="677.5" y="360" width="90" height="40" as="geometry" />
        </mxCell>
        <mxCell id="mWVV7jf4pfqnD_XnGMs0-15" value="eigenproblem" style="text;html=1;strokeColor=none;fillColor=none;align=center;verticalAlign=middle;whiteSpace=wrap;rounded=0;" vertex="1" parent="1">
          <mxGeometry x="670" y="280" width="105" height="40" as="geometry" />
        </mxCell>
        <mxCell id="mWVV7jf4pfqnD_XnGMs0-16" value="check_and_prep_for_next_iteration" style="text;whiteSpace=wrap;verticalAlign=middle;" vertex="1" parent="1">
          <mxGeometry x="637" y="780" width="190" height="40" as="geometry" />
        </mxCell>
        <mxCell id="mWVV7jf4pfqnD_XnGMs0-17" style="edgeStyle=orthogonalEdgeStyle;rounded=0;orthogonalLoop=1;jettySize=auto;html=1;exitX=0.5;exitY=1;exitDx=0;exitDy=0;entryX=0.5;entryY=0;entryDx=0;entryDy=0;fillColor=#dae8fc;strokeColor=#6c8ebf;" edge="1" parent="1" source="mWVV7jf4pfqnD_XnGMs0-18" target="mWVV7jf4pfqnD_XnGMs0-22">
          <mxGeometry relative="1" as="geometry">
            <mxPoint x="560" y="620" as="targetPoint" />
          </mxGeometry>
        </mxCell>
        <mxCell id="mWVV7jf4pfqnD_XnGMs0-18" value="Calculate effective potential" style="rounded=0;whiteSpace=wrap;html=1;fillColor=#dae8fc;strokeColor=#6c8ebf;" vertex="1" parent="1">
          <mxGeometry x="480" y="520" width="160" height="40" as="geometry" />
        </mxCell>
        <mxCell id="mWVV7jf4pfqnD_XnGMs0-19" value="energyforces" style="text;whiteSpace=wrap;html=1;verticalAlign=middle;align=center;" vertex="1" parent="1">
          <mxGeometry x="677.5" y="600" width="90" height="40" as="geometry" />
        </mxCell>
        <mxCell id="mWVV7jf4pfqnD_XnGMs0-20" value="" style="edgeStyle=orthogonalEdgeStyle;rounded=0;orthogonalLoop=1;jettySize=auto;html=1;fillColor=#dae8fc;strokeColor=#6c8ebf;" edge="1" parent="1" source="mWVV7jf4pfqnD_XnGMs0-21" target="mWVV7jf4pfqnD_XnGMs0-18">
          <mxGeometry relative="1" as="geometry" />
        </mxCell>
        <mxCell id="mWVV7jf4pfqnD_XnGMs0-21" value="Evaluate Density" style="rounded=0;whiteSpace=wrap;html=1;fillColor=#dae8fc;strokeColor=#6c8ebf;" vertex="1" parent="1">
          <mxGeometry x="480" y="440" width="160" height="40" as="geometry" />
        </mxCell>
        <mxCell id="mWVV7jf4pfqnD_XnGMs0-22" value="get forces on ions &amp;amp; energy" style="rounded=0;whiteSpace=wrap;html=1;fillColor=#dae8fc;strokeColor=#6c8ebf;" vertex="1" parent="1">
          <mxGeometry x="480" y="600" width="160" height="40" as="geometry" />
        </mxCell>
        <mxCell id="mWVV7jf4pfqnD_XnGMs0-23" value="" style="endArrow=classic;html=1;rounded=0;fillColor=#dae8fc;strokeColor=#6c8ebf;exitX=0.5;exitY=1;exitDx=0;exitDy=0;" edge="1" parent="1" source="mWVV7jf4pfqnD_XnGMs0-22" target="mWVV7jf4pfqnD_XnGMs0-24">
          <mxGeometry width="50" height="50" relative="1" as="geometry">
            <mxPoint x="560" y="660" as="sourcePoint" />
            <mxPoint x="560" y="760" as="targetPoint" />
          </mxGeometry>
        </mxCell>
        <mxCell id="mWVV7jf4pfqnD_XnGMs0-24" value="Mix potential" style="rounded=0;whiteSpace=wrap;html=1;fillColor=#dae8fc;strokeColor=#6c8ebf;" vertex="1" parent="1">
          <mxGeometry x="480" y="680" width="160" height="40" as="geometry" />
        </mxCell>
        <mxCell id="mWVV7jf4pfqnD_XnGMs0-25" value="mixpotential" style="text;whiteSpace=wrap;html=1;verticalAlign=middle;align=center;" vertex="1" parent="1">
          <mxGeometry x="677.5" y="680" width="90" height="40" as="geometry" />
        </mxCell>
        <mxCell id="mWVV7jf4pfqnD_XnGMs0-30" value="" style="edgeStyle=orthogonalEdgeStyle;rounded=0;orthogonalLoop=1;jettySize=auto;html=1;" edge="1" parent="1" source="mWVV7jf4pfqnD_XnGMs0-27" target="mWVV7jf4pfqnD_XnGMs0-29">
          <mxGeometry relative="1" as="geometry" />
        </mxCell>
        <mxCell id="mWVV7jf4pfqnD_XnGMs0-27" value="log" style="whiteSpace=wrap;html=1;fillColor=#dae8fc;strokeColor=#6c8ebf;" vertex="1" parent="1">
          <mxGeometry x="480" y="880" width="160" height="40" as="geometry" />
        </mxCell>
        <mxCell id="mWVV7jf4pfqnD_XnGMs0-28" value="post_main_loop" style="text;whiteSpace=wrap;html=1;verticalAlign=middle;align=center;" vertex="1" parent="1">
          <mxGeometry x="677.5" y="880" width="90" height="40" as="geometry" />
        </mxCell>
        <mxCell id="mWVV7jf4pfqnD_XnGMs0-29" value="end KS" style="rounded=1;whiteSpace=wrap;html=1;" vertex="1" parent="1">
          <mxGeometry x="480" y="960" width="160" height="40" as="geometry" />
        </mxCell>
        <mxCell id="mWVV7jf4pfqnD_XnGMs0-31" value="" style="endArrow=classic;html=1;rounded=0;entryX=0.5;entryY=0;entryDx=0;entryDy=0;fillColor=#dae8fc;strokeColor=#6c8ebf;exitX=0.5;exitY=1;exitDx=0;exitDy=0;" edge="1" parent="1" source="mWVV7jf4pfqnD_XnGMs0-32" target="mWVV7jf4pfqnD_XnGMs0-1">
          <mxGeometry width="50" height="50" relative="1" as="geometry">
            <mxPoint x="560" y="200" as="sourcePoint" />
            <mxPoint x="510" y="80" as="targetPoint" />
            <Array as="points">
              <mxPoint x="560" y="240" />
            </Array>
          </mxGeometry>
        </mxCell>
        <mxCell id="mWVV7jf4pfqnD_XnGMs0-32" value="start KS" style="rounded=1;whiteSpace=wrap;html=1;" vertex="1" parent="1">
          <mxGeometry x="480" y="80" width="160" height="40" as="geometry" />
        </mxCell>
      </root>
    </mxGraphModel>
  </diagram>
</mxfile>
